<svg width="213" height="97" viewBox="0 0 213 97" fill="none" xmlns="http://www.w3.org/2000/svg">
<g opacity="0.29">
<path fill-rule="evenodd" clip-rule="evenodd" d="M0 1.64C0 0.73425 0.73425 0 1.64 0C2.54575 0 3.28 0.73425 3.28 1.64C3.28 2.54575 2.54575 3.28 1.64 3.28C0.73425 3.28 0 2.54575 0 1.64Z" fill="#FAE824"/>
<path fill-rule="evenodd" clip-rule="evenodd" d="M23.2786 1.64C23.2786 0.73425 24.0128 0 24.9186 0C25.8243 0 26.5586 0.73425 26.5586 1.64C26.5586 2.54575 25.8243 3.28 24.9186 3.28C24.0128 3.28 23.2786 2.54575 23.2786 1.64Z" fill="#FAE824"/>
<path fill-rule="evenodd" clip-rule="evenodd" d="M46.5611 1.64C46.5611 0.73425 47.2953 0 48.2011 0C49.1068 0 49.8411 0.73425 49.8411 1.64C49.8411 2.54575 49.1068 3.28 48.2011 3.28C47.2953 3.28 46.5611 2.54575 46.5611 1.64Z" fill="#FAE824"/>
<path fill-rule="evenodd" clip-rule="evenodd" d="M69.8397 1.64C69.8397 0.73425 70.5739 0 71.4797 0C72.3854 0 73.1197 0.73425 73.1197 1.64C73.1197 2.54575 72.3854 3.28 71.4797 3.28C70.5739 3.28 69.8397 2.54575 69.8397 1.64Z" fill="#FAE824"/>
<path fill-rule="evenodd" clip-rule="evenodd" d="M93.1183 1.64C93.1183 0.73425 93.8525 0 94.7583 0C95.664 0 96.3983 0.73425 96.3983 1.64C96.3983 2.54575 95.664 3.28 94.7583 3.28C93.8525 3.28 93.1183 2.54575 93.1183 1.64Z" fill="#FAE824"/>
<path fill-rule="evenodd" clip-rule="evenodd" d="M116.401 1.64C116.401 0.73425 117.135 0 118.041 0C118.947 0 119.681 0.73425 119.681 1.64C119.681 2.54575 118.947 3.28 118.041 3.28C117.135 3.28 116.401 2.54575 116.401 1.64Z" fill="#FAE824"/>
<path fill-rule="evenodd" clip-rule="evenodd" d="M139.679 1.64C139.679 0.73425 140.414 0 141.319 0C142.225 0 142.959 0.73425 142.959 1.64C142.959 2.54575 142.225 3.28 141.319 3.28C140.414 3.28 139.679 2.54575 139.679 1.64Z" fill="#FAE824"/>
<path fill-rule="evenodd" clip-rule="evenodd" d="M162.962 1.64C162.962 0.73425 163.696 0 164.602 0C165.508 0 166.242 0.73425 166.242 1.64C166.242 2.54575 165.508 3.28 164.602 3.28C163.696 3.28 162.962 2.54575 162.962 1.64Z" fill="#FAE824"/>
<path fill-rule="evenodd" clip-rule="evenodd" d="M186.24 1.64C186.24 0.73425 186.975 0 187.88 0C188.786 0 189.52 0.73425 189.52 1.64C189.52 2.54575 188.786 3.28 187.88 3.28C186.975 3.28 186.24 2.54575 186.24 1.64Z" fill="#FAE824"/>
<path fill-rule="evenodd" clip-rule="evenodd" d="M209.519 1.64C209.519 0.73425 210.253 0 211.159 0C212.065 0 212.799 0.73425 212.799 1.64C212.799 2.54575 212.065 3.28 211.159 3.28C210.253 3.28 209.519 2.54575 209.519 1.64Z" fill="#FAE824"/>
<path fill-rule="evenodd" clip-rule="evenodd" d="M0 24.9201C0 24.0143 0.73425 23.2801 1.64 23.2801C2.54575 23.2801 3.28 24.0143 3.28 24.9201C3.28 25.8258 2.54575 26.5601 1.64 26.5601C0.73425 26.5601 0 25.8258 0 24.9201Z" fill="#FAE824"/>
<path fill-rule="evenodd" clip-rule="evenodd" d="M23.2786 24.9201C23.2786 24.0143 24.0128 23.2801 24.9186 23.2801C25.8243 23.2801 26.5586 24.0143 26.5586 24.9201C26.5586 25.8258 25.8243 26.5601 24.9186 26.5601C24.0128 26.5601 23.2786 25.8258 23.2786 24.9201Z" fill="#FAE824"/>
<path fill-rule="evenodd" clip-rule="evenodd" d="M46.5611 24.9201C46.5611 24.0143 47.2953 23.2801 48.2011 23.2801C49.1068 23.2801 49.8411 24.0143 49.8411 24.9201C49.8411 25.8258 49.1068 26.5601 48.2011 26.5601C47.2953 26.5601 46.5611 25.8258 46.5611 24.9201Z" fill="#FAE824"/>
<path fill-rule="evenodd" clip-rule="evenodd" d="M69.8397 24.9201C69.8397 24.0143 70.5739 23.2801 71.4797 23.2801C72.3854 23.2801 73.1197 24.0143 73.1197 24.9201C73.1197 25.8258 72.3854 26.5601 71.4797 26.5601C70.5739 26.5601 69.8397 25.8258 69.8397 24.9201Z" fill="#FAE824"/>
<path fill-rule="evenodd" clip-rule="evenodd" d="M93.1183 24.9201C93.1183 24.0143 93.8525 23.2801 94.7583 23.2801C95.664 23.2801 96.3983 24.0143 96.3983 24.9201C96.3983 25.8258 95.664 26.5601 94.7583 26.5601C93.8525 26.5601 93.1183 25.8258 93.1183 24.9201Z" fill="#FAE824"/>
<path fill-rule="evenodd" clip-rule="evenodd" d="M116.401 24.9201C116.401 24.0143 117.135 23.2801 118.041 23.2801C118.947 23.2801 119.681 24.0143 119.681 24.9201C119.681 25.8258 118.947 26.5601 118.041 26.5601C117.135 26.5601 116.401 25.8258 116.401 24.9201Z" fill="#FAE824"/>
<path fill-rule="evenodd" clip-rule="evenodd" d="M139.679 24.9201C139.679 24.0143 140.414 23.2801 141.319 23.2801C142.225 23.2801 142.959 24.0143 142.959 24.9201C142.959 25.8258 142.225 26.5601 141.319 26.5601C140.414 26.5601 139.679 25.8258 139.679 24.9201Z" fill="#FAE824"/>
<path fill-rule="evenodd" clip-rule="evenodd" d="M162.962 24.9201C162.962 24.0143 163.696 23.2801 164.602 23.2801C165.508 23.2801 166.242 24.0143 166.242 24.9201C166.242 25.8258 165.508 26.5601 164.602 26.5601C163.696 26.5601 162.962 25.8258 162.962 24.9201Z" fill="#FAE824"/>
<path fill-rule="evenodd" clip-rule="evenodd" d="M186.24 24.9201C186.24 24.0143 186.975 23.2801 187.88 23.2801C188.786 23.2801 189.52 24.0143 189.52 24.9201C189.52 25.8258 188.786 26.5601 187.88 26.5601C186.975 26.5601 186.24 25.8258 186.24 24.9201Z" fill="#FAE824"/>
<path fill-rule="evenodd" clip-rule="evenodd" d="M209.519 24.9201C209.519 24.0143 210.253 23.2801 211.159 23.2801C212.065 23.2801 212.799 24.0143 212.799 24.9201C212.799 25.8258 212.065 26.5601 211.159 26.5601C210.253 26.5601 209.519 25.8258 209.519 24.9201Z" fill="#FAE824"/>
<path fill-rule="evenodd" clip-rule="evenodd" d="M0 48.2001C0 47.2944 0.73425 46.5601 1.64 46.5601C2.54575 46.5601 3.28 47.2944 3.28 48.2001C3.28 49.1059 2.54575 49.8401 1.64 49.8401C0.73425 49.8401 0 49.1059 0 48.2001Z" fill="#FAE824"/>
<path fill-rule="evenodd" clip-rule="evenodd" d="M23.2786 48.2001C23.2786 47.2944 24.0128 46.5601 24.9186 46.5601C25.8243 46.5601 26.5586 47.2944 26.5586 48.2001C26.5586 49.1059 25.8243 49.8401 24.9186 49.8401C24.0128 49.8401 23.2786 49.1059 23.2786 48.2001Z" fill="#FAE824"/>
<path fill-rule="evenodd" clip-rule="evenodd" d="M46.5611 48.2001C46.5611 47.2944 47.2953 46.5601 48.2011 46.5601C49.1068 46.5601 49.8411 47.2944 49.8411 48.2001C49.8411 49.1059 49.1068 49.8401 48.2011 49.8401C47.2953 49.8401 46.5611 49.1059 46.5611 48.2001Z" fill="#FAE824"/>
<path fill-rule="evenodd" clip-rule="evenodd" d="M69.8397 48.2001C69.8397 47.2944 70.5739 46.5601 71.4797 46.5601C72.3854 46.5601 73.1197 47.2944 73.1197 48.2001C73.1197 49.1059 72.3854 49.8401 71.4797 49.8401C70.5739 49.8401 69.8397 49.1059 69.8397 48.2001Z" fill="#FAE824"/>
<path fill-rule="evenodd" clip-rule="evenodd" d="M93.1183 48.2001C93.1183 47.2944 93.8525 46.5601 94.7583 46.5601C95.664 46.5601 96.3983 47.2944 96.3983 48.2001C96.3983 49.1059 95.664 49.8401 94.7583 49.8401C93.8525 49.8401 93.1183 49.1059 93.1183 48.2001Z" fill="#FAE824"/>
<path fill-rule="evenodd" clip-rule="evenodd" d="M116.401 48.2001C116.401 47.2944 117.135 46.5601 118.041 46.5601C118.947 46.5601 119.681 47.2944 119.681 48.2001C119.681 49.1059 118.947 49.8401 118.041 49.8401C117.135 49.8401 116.401 49.1059 116.401 48.2001Z" fill="#FAE824"/>
<path fill-rule="evenodd" clip-rule="evenodd" d="M139.679 48.2001C139.679 47.2944 140.414 46.5601 141.319 46.5601C142.225 46.5601 142.959 47.2944 142.959 48.2001C142.959 49.1059 142.225 49.8401 141.319 49.8401C140.414 49.8401 139.679 49.1059 139.679 48.2001Z" fill="#FAE824"/>
<path fill-rule="evenodd" clip-rule="evenodd" d="M162.962 48.2001C162.962 47.2944 163.696 46.5601 164.602 46.5601C165.508 46.5601 166.242 47.2944 166.242 48.2001C166.242 49.1059 165.508 49.8401 164.602 49.8401C163.696 49.8401 162.962 49.1059 162.962 48.2001Z" fill="#FAE824"/>
<path fill-rule="evenodd" clip-rule="evenodd" d="M186.24 48.2001C186.24 47.2944 186.975 46.5601 187.88 46.5601C188.786 46.5601 189.52 47.2944 189.52 48.2001C189.52 49.1059 188.786 49.8401 187.88 49.8401C186.975 49.8401 186.24 49.1059 186.24 48.2001Z" fill="#FAE824"/>
<path fill-rule="evenodd" clip-rule="evenodd" d="M209.519 48.2001C209.519 47.2944 210.253 46.5601 211.159 46.5601C212.065 46.5601 212.799 47.2944 212.799 48.2001C212.799 49.1059 212.065 49.8401 211.159 49.8401C210.253 49.8401 209.519 49.1059 209.519 48.2001Z" fill="#FAE824"/>
<path fill-rule="evenodd" clip-rule="evenodd" d="M0 71.4801C0 70.5743 0.73425 69.8401 1.64 69.8401C2.54575 69.8401 3.28 70.5743 3.28 71.4801C3.28 72.3858 2.54575 73.1201 1.64 73.1201C0.73425 73.1201 0 72.3858 0 71.4801Z" fill="#FAE824"/>
<path fill-rule="evenodd" clip-rule="evenodd" d="M23.2786 71.4801C23.2786 70.5743 24.0128 69.8401 24.9186 69.8401C25.8243 69.8401 26.5586 70.5743 26.5586 71.4801C26.5586 72.3858 25.8243 73.1201 24.9186 73.1201C24.0128 73.1201 23.2786 72.3858 23.2786 71.4801Z" fill="#FAE824"/>
<path fill-rule="evenodd" clip-rule="evenodd" d="M46.5611 71.4801C46.5611 70.5743 47.2953 69.8401 48.2011 69.8401C49.1068 69.8401 49.8411 70.5743 49.8411 71.4801C49.8411 72.3858 49.1068 73.1201 48.2011 73.1201C47.2953 73.1201 46.5611 72.3858 46.5611 71.4801Z" fill="#FAE824"/>
<path fill-rule="evenodd" clip-rule="evenodd" d="M69.8397 71.4801C69.8397 70.5743 70.5739 69.8401 71.4797 69.8401C72.3854 69.8401 73.1197 70.5743 73.1197 71.4801C73.1197 72.3858 72.3854 73.1201 71.4797 73.1201C70.5739 73.1201 69.8397 72.3858 69.8397 71.4801Z" fill="#FAE824"/>
<path fill-rule="evenodd" clip-rule="evenodd" d="M93.1183 71.4801C93.1183 70.5743 93.8525 69.8401 94.7583 69.8401C95.664 69.8401 96.3983 70.5743 96.3983 71.4801C96.3983 72.3858 95.664 73.1201 94.7583 73.1201C93.8525 73.1201 93.1183 72.3858 93.1183 71.4801Z" fill="#FAE824"/>
<path fill-rule="evenodd" clip-rule="evenodd" d="M116.401 71.4801C116.401 70.5743 117.135 69.8401 118.041 69.8401C118.947 69.8401 119.681 70.5743 119.681 71.4801C119.681 72.3858 118.947 73.1201 118.041 73.1201C117.135 73.1201 116.401 72.3858 116.401 71.4801Z" fill="#FAE824"/>
<path fill-rule="evenodd" clip-rule="evenodd" d="M139.679 71.4801C139.679 70.5743 140.414 69.8401 141.319 69.8401C142.225 69.8401 142.959 70.5743 142.959 71.4801C142.959 72.3858 142.225 73.1201 141.319 73.1201C140.414 73.1201 139.679 72.3858 139.679 71.4801Z" fill="#FAE824"/>
<path fill-rule="evenodd" clip-rule="evenodd" d="M162.962 71.4801C162.962 70.5743 163.696 69.8401 164.602 69.8401C165.508 69.8401 166.242 70.5743 166.242 71.4801C166.242 72.3858 165.508 73.1201 164.602 73.1201C163.696 73.1201 162.962 72.3858 162.962 71.4801Z" fill="#FAE824"/>
<path fill-rule="evenodd" clip-rule="evenodd" d="M186.24 71.4801C186.24 70.5743 186.975 69.8401 187.88 69.8401C188.786 69.8401 189.52 70.5743 189.52 71.4801C189.52 72.3858 188.786 73.1201 187.88 73.1201C186.975 73.1201 186.24 72.3858 186.24 71.4801Z" fill="#FAE824"/>
<path fill-rule="evenodd" clip-rule="evenodd" d="M209.519 71.4801C209.519 70.5743 210.253 69.8401 211.159 69.8401C212.065 69.8401 212.799 70.5743 212.799 71.4801C212.799 72.3858 212.065 73.1201 211.159 73.1201C210.253 73.1201 209.519 72.3858 209.519 71.4801Z" fill="#FAE824"/>
<path fill-rule="evenodd" clip-rule="evenodd" d="M0 94.7601C0 93.8544 0.73425 93.1201 1.64 93.1201C2.54575 93.1201 3.28 93.8544 3.28 94.7601C3.28 95.6659 2.54575 96.4001 1.64 96.4001C0.73425 96.4001 0 95.6659 0 94.7601Z" fill="#FAE824"/>
<path fill-rule="evenodd" clip-rule="evenodd" d="M23.2786 94.7601C23.2786 93.8544 24.0128 93.1201 24.9186 93.1201C25.8243 93.1201 26.5586 93.8544 26.5586 94.7601C26.5586 95.6659 25.8243 96.4001 24.9186 96.4001C24.0128 96.4001 23.2786 95.6659 23.2786 94.7601Z" fill="#FAE824"/>
<path fill-rule="evenodd" clip-rule="evenodd" d="M46.5611 94.7601C46.5611 93.8544 47.2953 93.1201 48.2011 93.1201C49.1068 93.1201 49.8411 93.8544 49.8411 94.7601C49.8411 95.6659 49.1068 96.4001 48.2011 96.4001C47.2953 96.4001 46.5611 95.6659 46.5611 94.7601Z" fill="#FAE824"/>
<path fill-rule="evenodd" clip-rule="evenodd" d="M69.8397 94.7601C69.8397 93.8544 70.5739 93.1201 71.4797 93.1201C72.3854 93.1201 73.1197 93.8544 73.1197 94.7601C73.1197 95.6659 72.3854 96.4001 71.4797 96.4001C70.5739 96.4001 69.8397 95.6659 69.8397 94.7601Z" fill="#FAE824"/>
<path fill-rule="evenodd" clip-rule="evenodd" d="M93.1183 94.7601C93.1183 93.8544 93.8525 93.1201 94.7583 93.1201C95.664 93.1201 96.3983 93.8544 96.3983 94.7601C96.3983 95.6659 95.664 96.4001 94.7583 96.4001C93.8525 96.4001 93.1183 95.6659 93.1183 94.7601Z" fill="#FAE824"/>
<path fill-rule="evenodd" clip-rule="evenodd" d="M116.401 94.7601C116.401 93.8544 117.135 93.1201 118.041 93.1201C118.947 93.1201 119.681 93.8544 119.681 94.7601C119.681 95.6659 118.947 96.4001 118.041 96.4001C117.135 96.4001 116.401 95.6659 116.401 94.7601Z" fill="#FAE824"/>
<path fill-rule="evenodd" clip-rule="evenodd" d="M139.679 94.7601C139.679 93.8544 140.414 93.1201 141.319 93.1201C142.225 93.1201 142.959 93.8544 142.959 94.7601C142.959 95.6659 142.225 96.4001 141.319 96.4001C140.414 96.4001 139.679 95.6659 139.679 94.7601Z" fill="#FAE824"/>
<path fill-rule="evenodd" clip-rule="evenodd" d="M162.962 94.7601C162.962 93.8544 163.696 93.1201 164.602 93.1201C165.508 93.1201 166.242 93.8544 166.242 94.7601C166.242 95.6659 165.508 96.4001 164.602 96.4001C163.696 96.4001 162.962 95.6659 162.962 94.7601Z" fill="#FAE824"/>
<path fill-rule="evenodd" clip-rule="evenodd" d="M186.24 94.7601C186.24 93.8544 186.975 93.1201 187.88 93.1201C188.786 93.1201 189.52 93.8544 189.52 94.7601C189.52 95.6659 188.786 96.4001 187.88 96.4001C186.975 96.4001 186.24 95.6659 186.24 94.7601Z" fill="#FAE824"/>
<path fill-rule="evenodd" clip-rule="evenodd" d="M209.519 94.7601C209.519 93.8544 210.253 93.1201 211.159 93.1201C212.065 93.1201 212.799 93.8544 212.799 94.7601C212.799 95.6659 212.065 96.4001 211.159 96.4001C210.253 96.4001 209.519 95.6659 209.519 94.7601Z" fill="#FAE824"/>
</g>
</svg>
